<mxfile host="app.diagrams.net" agent="Mozilla/5.0 (X11; Linux x86_64; rv:128.0) Gecko/20100101 Firefox/128.0" scale="1" border="0" version="26.2.14">
  <diagram name="Page-1" id="-k6Bpu79n_YiswQp8BqB">
    <mxGraphModel dx="2096" dy="1028" grid="1" gridSize="10" guides="1" tooltips="1" connect="1" arrows="1" fold="1" page="1" pageScale="1" pageWidth="827" pageHeight="1169" math="0" shadow="0">
      <root>
        <mxCell id="0" />
        <mxCell id="1" parent="0" />
        <mxCell id="7" value="" style="curved=1;endArrow=classic;html=1;rounded=0;entryX=0;entryY=0;entryDx=0;entryDy=0;dashed=1;fillColor=#60a917;strokeColor=default;exitX=-0.013;exitY=0.444;exitDx=0;exitDy=0;exitPerimeter=0;" parent="1" edge="1" source="4hFczNKrFziQG2gCzflK-63">
          <mxGeometry width="50" height="50" relative="1" as="geometry">
            <mxPoint x="340" y="550" as="sourcePoint" />
            <mxPoint x="240" y="645" as="targetPoint" />
            <Array as="points">
              <mxPoint x="230" y="580" />
            </Array>
          </mxGeometry>
        </mxCell>
        <mxCell id="4hFczNKrFziQG2gCzflK-62" value="Seize" style="edgeLabel;html=1;align=center;verticalAlign=middle;resizable=0;points=[];fontSize=16;fontFamily=Architects Daughter;fontSource=https%3A%2F%2Ffonts.googleapis.com%2Fcss%3Ffamily%3DArchitects%2BDaughter;" parent="7" vertex="1" connectable="0">
          <mxGeometry x="0.2241" y="6" relative="1" as="geometry">
            <mxPoint x="14" y="-3" as="offset" />
          </mxGeometry>
        </mxCell>
        <mxCell id="11" value="" style="group" parent="1" vertex="1" connectable="0">
          <mxGeometry x="170" y="650" width="70" height="30" as="geometry" />
        </mxCell>
        <mxCell id="12" value="" style="endArrow=none;html=1;rounded=0;strokeWidth=1;flowAnimation=0;shadow=0;" parent="11" edge="1">
          <mxGeometry width="50" height="50" relative="1" as="geometry">
            <mxPoint as="sourcePoint" />
            <mxPoint x="70" as="targetPoint" />
          </mxGeometry>
        </mxCell>
        <mxCell id="13" value="" style="endArrow=none;html=1;rounded=0;strokeWidth=2;entryX=1;entryY=1;entryDx=0;entryDy=0;flowAnimation=0;shadow=0;" parent="11" edge="1">
          <mxGeometry width="50" height="50" relative="1" as="geometry">
            <mxPoint x="69" as="sourcePoint" />
            <mxPoint x="69" y="30" as="targetPoint" />
          </mxGeometry>
        </mxCell>
        <mxCell id="14" value="" style="endArrow=none;html=1;rounded=0;strokeWidth=1;flowAnimation=0;shadow=0;" parent="11" edge="1">
          <mxGeometry width="50" height="50" relative="1" as="geometry">
            <mxPoint y="30" as="sourcePoint" />
            <mxPoint x="70" y="30" as="targetPoint" />
          </mxGeometry>
        </mxCell>
        <mxCell id="15" value="" style="endArrow=none;html=1;rounded=0;strokeWidth=1;entryX=1;entryY=1;entryDx=0;entryDy=0;flowAnimation=0;shadow=0;" parent="11" edge="1">
          <mxGeometry width="50" height="50" relative="1" as="geometry">
            <mxPoint x="60" as="sourcePoint" />
            <mxPoint x="60" y="30" as="targetPoint" />
          </mxGeometry>
        </mxCell>
        <mxCell id="16" value="" style="endArrow=none;html=1;rounded=0;strokeWidth=1;entryX=1;entryY=1;entryDx=0;entryDy=0;flowAnimation=0;shadow=0;" parent="11" edge="1">
          <mxGeometry width="50" height="50" relative="1" as="geometry">
            <mxPoint x="50" as="sourcePoint" />
            <mxPoint x="50" y="30" as="targetPoint" />
          </mxGeometry>
        </mxCell>
        <mxCell id="17" value="" style="endArrow=none;html=1;rounded=0;strokeWidth=1;entryX=1;entryY=1;entryDx=0;entryDy=0;flowAnimation=0;shadow=0;" parent="11" edge="1">
          <mxGeometry width="50" height="50" relative="1" as="geometry">
            <mxPoint x="40" as="sourcePoint" />
            <mxPoint x="40" y="30" as="targetPoint" />
          </mxGeometry>
        </mxCell>
        <mxCell id="18" value="" style="endArrow=none;html=1;rounded=0;strokeWidth=1;entryX=1;entryY=1;entryDx=0;entryDy=0;flowAnimation=0;shadow=0;" parent="11" edge="1">
          <mxGeometry width="50" height="50" relative="1" as="geometry">
            <mxPoint x="30" as="sourcePoint" />
            <mxPoint x="30" y="30" as="targetPoint" />
          </mxGeometry>
        </mxCell>
        <mxCell id="19" value="" style="endArrow=none;html=1;rounded=0;strokeWidth=1;entryX=1;entryY=1;entryDx=0;entryDy=0;flowAnimation=0;shadow=0;" parent="11" edge="1">
          <mxGeometry width="50" height="50" relative="1" as="geometry">
            <mxPoint x="20" as="sourcePoint" />
            <mxPoint x="20" y="30" as="targetPoint" />
          </mxGeometry>
        </mxCell>
        <mxCell id="20" value="" style="endArrow=none;html=1;rounded=0;strokeWidth=1;entryX=1;entryY=1;entryDx=0;entryDy=0;flowAnimation=0;shadow=0;" parent="11" edge="1">
          <mxGeometry width="50" height="50" relative="1" as="geometry">
            <mxPoint x="10" as="sourcePoint" />
            <mxPoint x="10" y="30" as="targetPoint" />
          </mxGeometry>
        </mxCell>
        <mxCell id="4hFczNKrFziQG2gCzflK-68" style="edgeStyle=none;curved=1;rounded=0;orthogonalLoop=1;jettySize=auto;html=1;fontFamily=Architects Daughter;fontSource=https%3A%2F%2Ffonts.googleapis.com%2Fcss%3Ffamily%3DArchitects%2BDaughter;fontSize=16;startSize=14;endArrow=open;endSize=14;sourcePerimeterSpacing=8;targetPerimeterSpacing=8;flowAnimation=0;sketch=1;curveFitting=1;jiggle=2;" parent="1" edge="1">
          <mxGeometry relative="1" as="geometry">
            <mxPoint x="280" y="665" as="sourcePoint" />
            <mxPoint x="392" y="665" as="targetPoint" />
          </mxGeometry>
        </mxCell>
        <mxCell id="4hFczNKrFziQG2gCzflK-41" value="acute treatment" style="rounded=0;whiteSpace=wrap;html=1;fontFamily=Architects Daughter;fontSource=https%3A%2F%2Ffonts.googleapis.com%2Fcss%3Ffamily%3DArchitects%2BDaughter;sketch=1;curveFitting=1;jiggle=2;" parent="1" vertex="1">
          <mxGeometry x="240" y="645" width="80" height="40" as="geometry" />
        </mxCell>
        <mxCell id="Fs0Zx2mOZhYERamO-J62-26" value="" style="edgeStyle=none;curved=1;rounded=0;sketch=1;hachureGap=4;jiggle=2;curveFitting=1;orthogonalLoop=1;jettySize=auto;html=1;fontFamily=Architects Daughter;fontSource=https%3A%2F%2Ffonts.googleapis.com%2Fcss%3Ffamily%3DArchitects%2BDaughter;fontSize=16;startSize=14;endArrow=open;endSize=14;sourcePerimeterSpacing=8;targetPerimeterSpacing=8;" edge="1" parent="1" source="4hFczNKrFziQG2gCzflK-59">
          <mxGeometry relative="1" as="geometry">
            <mxPoint x="170" y="670" as="targetPoint" />
          </mxGeometry>
        </mxCell>
        <mxCell id="4hFczNKrFziQG2gCzflK-59" value="time between arrivals" style="rounded=1;whiteSpace=wrap;html=1;fontFamily=Architects Daughter;fontSource=https%3A%2F%2Ffonts.googleapis.com%2Fcss%3Ffamily%3DArchitects%2BDaughter;sketch=1;curveFitting=1;jiggle=2;" parent="1" vertex="1">
          <mxGeometry x="50" y="645" width="80" height="40" as="geometry" />
        </mxCell>
        <mxCell id="4hFczNKrFziQG2gCzflK-60" value="&lt;div&gt;queue&lt;/div&gt;" style="text;strokeColor=none;fillColor=none;html=1;align=center;verticalAlign=middle;whiteSpace=wrap;rounded=0;fontSize=20;fontFamily=Architects Daughter;fontSource=https%3A%2F%2Ffonts.googleapis.com%2Fcss%3Ffamily%3DArchitects%2BDaughter;" parent="1" vertex="1">
          <mxGeometry x="175" y="680" width="60" height="30" as="geometry" />
        </mxCell>
        <mxCell id="4hFczNKrFziQG2gCzflK-70" value="" style="curved=1;endArrow=classic;html=1;rounded=0;exitX=-0.017;exitY=0.585;exitDx=0;exitDy=0;entryX=0;entryY=1;entryDx=0;entryDy=0;dashed=1;exitPerimeter=0;" parent="1" edge="1" target="4hFczNKrFziQG2gCzflK-84" source="4hFczNKrFziQG2gCzflK-87">
          <mxGeometry width="50" height="50" relative="1" as="geometry">
            <mxPoint x="499" y="710" as="sourcePoint" />
            <mxPoint x="484" y="795" as="targetPoint" />
            <Array as="points">
              <mxPoint x="460" y="735" />
            </Array>
          </mxGeometry>
        </mxCell>
        <mxCell id="4hFczNKrFziQG2gCzflK-71" value="Seize" style="edgeLabel;html=1;align=center;verticalAlign=middle;resizable=0;points=[];fontSize=16;fontFamily=Architects Daughter;fontSource=https%3A%2F%2Ffonts.googleapis.com%2Fcss%3Ffamily%3DArchitects%2BDaughter;" parent="4hFczNKrFziQG2gCzflK-70" vertex="1" connectable="0">
          <mxGeometry x="0.2241" y="6" relative="1" as="geometry">
            <mxPoint x="31" y="-1" as="offset" />
          </mxGeometry>
        </mxCell>
        <mxCell id="4hFczNKrFziQG2gCzflK-72" value="" style="curved=1;endArrow=classic;html=1;rounded=0;exitX=1;exitY=1;exitDx=0;exitDy=0;entryX=1;entryY=0.5;entryDx=0;entryDy=0;dashed=1;" parent="1" edge="1" target="4hFczNKrFziQG2gCzflK-87" source="Fs0Zx2mOZhYERamO-J62-28">
          <mxGeometry width="50" height="50" relative="1" as="geometry">
            <mxPoint x="536" y="644.52" as="sourcePoint" />
            <mxPoint x="521" y="559.52" as="targetPoint" />
            <Array as="points">
              <mxPoint x="660" y="760" />
            </Array>
          </mxGeometry>
        </mxCell>
        <mxCell id="4hFczNKrFziQG2gCzflK-73" value="Release" style="edgeLabel;html=1;align=center;verticalAlign=middle;resizable=0;points=[];fontSize=16;fontFamily=Architects Daughter;fontSource=https%3A%2F%2Ffonts.googleapis.com%2Fcss%3Ffamily%3DArchitects%2BDaughter;" parent="4hFczNKrFziQG2gCzflK-72" vertex="1" connectable="0">
          <mxGeometry x="-0.2694" y="10" relative="1" as="geometry">
            <mxPoint x="-23" y="-1" as="offset" />
          </mxGeometry>
        </mxCell>
        <mxCell id="4hFczNKrFziQG2gCzflK-74" value="" style="group" parent="1" vertex="1" connectable="0">
          <mxGeometry x="386" y="650" width="70" height="30" as="geometry" />
        </mxCell>
        <mxCell id="4hFczNKrFziQG2gCzflK-76" value="" style="endArrow=none;html=1;rounded=0;strokeWidth=2;entryX=1;entryY=1;entryDx=0;entryDy=0;flowAnimation=0;shadow=0;" parent="4hFczNKrFziQG2gCzflK-74" edge="1">
          <mxGeometry width="50" height="50" relative="1" as="geometry">
            <mxPoint x="69" as="sourcePoint" />
            <mxPoint x="69" y="30" as="targetPoint" />
          </mxGeometry>
        </mxCell>
        <mxCell id="4hFczNKrFziQG2gCzflK-77" value="" style="endArrow=none;html=1;rounded=0;strokeWidth=1;flowAnimation=0;shadow=0;" parent="4hFczNKrFziQG2gCzflK-74" edge="1">
          <mxGeometry width="50" height="50" relative="1" as="geometry">
            <mxPoint y="30" as="sourcePoint" />
            <mxPoint x="70" y="30" as="targetPoint" />
          </mxGeometry>
        </mxCell>
        <mxCell id="4hFczNKrFziQG2gCzflK-78" value="" style="endArrow=none;html=1;rounded=0;strokeWidth=1;entryX=1;entryY=1;entryDx=0;entryDy=0;flowAnimation=0;shadow=0;" parent="4hFczNKrFziQG2gCzflK-74" edge="1">
          <mxGeometry width="50" height="50" relative="1" as="geometry">
            <mxPoint x="60" as="sourcePoint" />
            <mxPoint x="60" y="30" as="targetPoint" />
          </mxGeometry>
        </mxCell>
        <mxCell id="4hFczNKrFziQG2gCzflK-79" value="" style="endArrow=none;html=1;rounded=0;strokeWidth=1;entryX=1;entryY=1;entryDx=0;entryDy=0;flowAnimation=0;shadow=0;" parent="4hFczNKrFziQG2gCzflK-74" edge="1">
          <mxGeometry width="50" height="50" relative="1" as="geometry">
            <mxPoint x="50" as="sourcePoint" />
            <mxPoint x="50" y="30" as="targetPoint" />
          </mxGeometry>
        </mxCell>
        <mxCell id="4hFczNKrFziQG2gCzflK-80" value="" style="endArrow=none;html=1;rounded=0;strokeWidth=1;entryX=1;entryY=1;entryDx=0;entryDy=0;flowAnimation=0;shadow=0;" parent="4hFczNKrFziQG2gCzflK-74" edge="1">
          <mxGeometry width="50" height="50" relative="1" as="geometry">
            <mxPoint x="40" as="sourcePoint" />
            <mxPoint x="40" y="30" as="targetPoint" />
          </mxGeometry>
        </mxCell>
        <mxCell id="4hFczNKrFziQG2gCzflK-81" value="" style="endArrow=none;html=1;rounded=0;strokeWidth=1;entryX=1;entryY=1;entryDx=0;entryDy=0;flowAnimation=0;shadow=0;" parent="4hFczNKrFziQG2gCzflK-74" edge="1">
          <mxGeometry width="50" height="50" relative="1" as="geometry">
            <mxPoint x="30" as="sourcePoint" />
            <mxPoint x="30" y="30" as="targetPoint" />
          </mxGeometry>
        </mxCell>
        <mxCell id="4hFczNKrFziQG2gCzflK-82" value="" style="endArrow=none;html=1;rounded=0;strokeWidth=1;entryX=1;entryY=1;entryDx=0;entryDy=0;flowAnimation=0;shadow=0;" parent="4hFczNKrFziQG2gCzflK-74" edge="1">
          <mxGeometry width="50" height="50" relative="1" as="geometry">
            <mxPoint x="20" as="sourcePoint" />
            <mxPoint x="20" y="30" as="targetPoint" />
          </mxGeometry>
        </mxCell>
        <mxCell id="4hFczNKrFziQG2gCzflK-83" value="" style="endArrow=none;html=1;rounded=0;strokeWidth=1;entryX=1;entryY=1;entryDx=0;entryDy=0;flowAnimation=0;shadow=0;" parent="4hFczNKrFziQG2gCzflK-74" edge="1">
          <mxGeometry width="50" height="50" relative="1" as="geometry">
            <mxPoint x="10" as="sourcePoint" />
            <mxPoint x="10" y="30" as="targetPoint" />
          </mxGeometry>
        </mxCell>
        <mxCell id="4hFczNKrFziQG2gCzflK-75" value="" style="endArrow=none;html=1;rounded=0;strokeWidth=1;flowAnimation=0;shadow=0;" parent="4hFczNKrFziQG2gCzflK-74" edge="1">
          <mxGeometry width="50" height="50" relative="1" as="geometry">
            <mxPoint as="sourcePoint" />
            <mxPoint x="70" as="targetPoint" />
          </mxGeometry>
        </mxCell>
        <mxCell id="Fs0Zx2mOZhYERamO-J62-29" value="" style="edgeStyle=none;curved=1;rounded=0;sketch=1;hachureGap=4;jiggle=2;curveFitting=1;orthogonalLoop=1;jettySize=auto;html=1;fontFamily=Architects Daughter;fontSource=https%3A%2F%2Ffonts.googleapis.com%2Fcss%3Ffamily%3DArchitects%2BDaughter;fontSize=16;startSize=14;endArrow=open;endSize=14;sourcePerimeterSpacing=8;targetPerimeterSpacing=8;" edge="1" parent="1" source="4hFczNKrFziQG2gCzflK-84" target="Fs0Zx2mOZhYERamO-J62-28">
          <mxGeometry relative="1" as="geometry" />
        </mxCell>
        <mxCell id="4hFczNKrFziQG2gCzflK-84" value="transfer to rehab" style="rounded=0;whiteSpace=wrap;html=1;fontFamily=Architects Daughter;fontSource=https%3A%2F%2Ffonts.googleapis.com%2Fcss%3Ffamily%3DArchitects%2BDaughter;sketch=1;curveFitting=1;jiggle=2;" parent="1" vertex="1">
          <mxGeometry x="456" y="645" width="80" height="40" as="geometry" />
        </mxCell>
        <mxCell id="4hFczNKrFziQG2gCzflK-85" value="&lt;br&gt;&lt;div&gt;queue&lt;/div&gt;" style="text;strokeColor=none;fillColor=none;html=1;align=center;verticalAlign=middle;whiteSpace=wrap;rounded=0;fontSize=20;fontFamily=Architects Daughter;fontSource=https%3A%2F%2Ffonts.googleapis.com%2Fcss%3Ffamily%3DArchitects%2BDaughter;sketch=1;curveFitting=1;jiggle=2;" parent="1" vertex="1">
          <mxGeometry x="392" y="670" width="60" height="30" as="geometry" />
        </mxCell>
        <mxCell id="4hFczNKrFziQG2gCzflK-87" value="rehab bed" style="ellipse;whiteSpace=wrap;html=1;fontFamily=Architects Daughter;fontSource=https%3A%2F%2Ffonts.googleapis.com%2Fcss%3Ffamily%3DArchitects%2BDaughter;sketch=1;curveFitting=1;jiggle=2;" parent="1" vertex="1">
          <mxGeometry x="536" y="740" width="50" height="50" as="geometry" />
        </mxCell>
        <mxCell id="4hFczNKrFziQG2gCzflK-88" value="Discharge" style="rounded=1;whiteSpace=wrap;html=1;fontFamily=Architects Daughter;fontSource=https%3A%2F%2Ffonts.googleapis.com%2Fcss%3Ffamily%3DArchitects%2BDaughter;sketch=1;curveFitting=1;jiggle=2;" parent="1" vertex="1">
          <mxGeometry x="710" y="645" width="80" height="40" as="geometry" />
        </mxCell>
        <mxCell id="4hFczNKrFziQG2gCzflK-94" value="" style="shape=table;startSize=0;container=1;collapsible=0;childLayout=tableLayout;fontFamily=Architects Daughter;fontSource=https%3A%2F%2Ffonts.googleapis.com%2Fcss%3Ffamily%3DArchitects%2BDaughter;" parent="1" vertex="1">
          <mxGeometry x="50" y="750" width="250" height="85" as="geometry" />
        </mxCell>
        <mxCell id="4hFczNKrFziQG2gCzflK-95" value="" style="shape=tableRow;horizontal=0;startSize=0;swimlaneHead=0;swimlaneBody=0;strokeColor=inherit;top=0;left=0;bottom=0;right=0;collapsible=0;dropTarget=0;fillColor=none;points=[[0,0.5],[1,0.5]];portConstraint=eastwest;fontFamily=Architects Daughter;fontSource=https%3A%2F%2Ffonts.googleapis.com%2Fcss%3Ffamily%3DArchitects%2BDaughter;" parent="4hFczNKrFziQG2gCzflK-94" vertex="1">
          <mxGeometry width="250" height="21" as="geometry" />
        </mxCell>
        <mxCell id="4hFczNKrFziQG2gCzflK-96" value="&lt;b&gt;ACTIVITY&lt;/b&gt;" style="shape=partialRectangle;html=1;whiteSpace=wrap;connectable=0;strokeColor=inherit;overflow=hidden;fillColor=none;top=0;left=0;bottom=0;right=0;pointerEvents=1;fontFamily=Architects Daughter;fontSource=https%3A%2F%2Ffonts.googleapis.com%2Fcss%3Ffamily%3DArchitects%2BDaughter;" parent="4hFczNKrFziQG2gCzflK-95" vertex="1">
          <mxGeometry width="125" height="21" as="geometry">
            <mxRectangle width="125" height="21" as="alternateBounds" />
          </mxGeometry>
        </mxCell>
        <mxCell id="4hFczNKrFziQG2gCzflK-97" value="&lt;b&gt;DISTRIBUTION&lt;/b&gt;" style="shape=partialRectangle;html=1;whiteSpace=wrap;connectable=0;strokeColor=inherit;overflow=hidden;fillColor=none;top=0;left=0;bottom=0;right=0;pointerEvents=1;fontFamily=Architects Daughter;fontSource=https%3A%2F%2Ffonts.googleapis.com%2Fcss%3Ffamily%3DArchitects%2BDaughter;" parent="4hFczNKrFziQG2gCzflK-95" vertex="1">
          <mxGeometry x="125" width="125" height="21" as="geometry">
            <mxRectangle width="125" height="21" as="alternateBounds" />
          </mxGeometry>
        </mxCell>
        <mxCell id="4hFczNKrFziQG2gCzflK-98" value="" style="shape=tableRow;horizontal=0;startSize=0;swimlaneHead=0;swimlaneBody=0;strokeColor=inherit;top=0;left=0;bottom=0;right=0;collapsible=0;dropTarget=0;fillColor=none;points=[[0,0.5],[1,0.5]];portConstraint=eastwest;fontFamily=Architects Daughter;fontSource=https%3A%2F%2Ffonts.googleapis.com%2Fcss%3Ffamily%3DArchitects%2BDaughter;" parent="4hFczNKrFziQG2gCzflK-94" vertex="1">
          <mxGeometry y="21" width="250" height="22" as="geometry" />
        </mxCell>
        <mxCell id="4hFczNKrFziQG2gCzflK-99" value="time between arrivals" style="shape=partialRectangle;html=1;whiteSpace=wrap;connectable=0;strokeColor=inherit;overflow=hidden;fillColor=none;top=0;left=0;bottom=0;right=0;pointerEvents=1;fontFamily=Architects Daughter;fontSource=https%3A%2F%2Ffonts.googleapis.com%2Fcss%3Ffamily%3DArchitects%2BDaughter;" parent="4hFczNKrFziQG2gCzflK-98" vertex="1">
          <mxGeometry width="125" height="22" as="geometry">
            <mxRectangle width="125" height="22" as="alternateBounds" />
          </mxGeometry>
        </mxCell>
        <mxCell id="4hFczNKrFziQG2gCzflK-100" value="exponential(1.5)" style="shape=partialRectangle;html=1;whiteSpace=wrap;connectable=0;strokeColor=inherit;overflow=hidden;fillColor=none;top=0;left=0;bottom=0;right=0;pointerEvents=1;fontFamily=Architects Daughter;fontSource=https%3A%2F%2Ffonts.googleapis.com%2Fcss%3Ffamily%3DArchitects%2BDaughter;" parent="4hFczNKrFziQG2gCzflK-98" vertex="1">
          <mxGeometry x="125" width="125" height="22" as="geometry">
            <mxRectangle width="125" height="22" as="alternateBounds" />
          </mxGeometry>
        </mxCell>
        <mxCell id="4hFczNKrFziQG2gCzflK-101" value="" style="shape=tableRow;horizontal=0;startSize=0;swimlaneHead=0;swimlaneBody=0;strokeColor=inherit;top=0;left=0;bottom=0;right=0;collapsible=0;dropTarget=0;fillColor=none;points=[[0,0.5],[1,0.5]];portConstraint=eastwest;fontFamily=Architects Daughter;fontSource=https%3A%2F%2Ffonts.googleapis.com%2Fcss%3Ffamily%3DArchitects%2BDaughter;" parent="4hFczNKrFziQG2gCzflK-94" vertex="1">
          <mxGeometry y="43" width="250" height="21" as="geometry" />
        </mxCell>
        <mxCell id="4hFczNKrFziQG2gCzflK-102" value="acute treatment" style="shape=partialRectangle;html=1;whiteSpace=wrap;connectable=0;strokeColor=inherit;overflow=hidden;fillColor=none;top=0;left=0;bottom=0;right=0;pointerEvents=1;fontFamily=Architects Daughter;fontSource=https%3A%2F%2Ffonts.googleapis.com%2Fcss%3Ffamily%3DArchitects%2BDaughter;" parent="4hFczNKrFziQG2gCzflK-101" vertex="1">
          <mxGeometry width="125" height="21" as="geometry">
            <mxRectangle width="125" height="21" as="alternateBounds" />
          </mxGeometry>
        </mxCell>
        <mxCell id="4hFczNKrFziQG2gCzflK-103" value="lognormal(7.0, 1.0)" style="shape=partialRectangle;html=1;whiteSpace=wrap;connectable=0;strokeColor=inherit;overflow=hidden;fillColor=none;top=0;left=0;bottom=0;right=0;pointerEvents=1;fontFamily=Architects Daughter;fontSource=https%3A%2F%2Ffonts.googleapis.com%2Fcss%3Ffamily%3DArchitects%2BDaughter;" parent="4hFczNKrFziQG2gCzflK-101" vertex="1">
          <mxGeometry x="125" width="125" height="21" as="geometry">
            <mxRectangle width="125" height="21" as="alternateBounds" />
          </mxGeometry>
        </mxCell>
        <mxCell id="4hFczNKrFziQG2gCzflK-104" value="" style="shape=tableRow;horizontal=0;startSize=0;swimlaneHead=0;swimlaneBody=0;strokeColor=inherit;top=0;left=0;bottom=0;right=0;collapsible=0;dropTarget=0;fillColor=none;points=[[0,0.5],[1,0.5]];portConstraint=eastwest;fontFamily=Architects Daughter;fontSource=https%3A%2F%2Ffonts.googleapis.com%2Fcss%3Ffamily%3DArchitects%2BDaughter;" parent="4hFczNKrFziQG2gCzflK-94" vertex="1">
          <mxGeometry y="64" width="250" height="21" as="geometry" />
        </mxCell>
        <mxCell id="4hFczNKrFziQG2gCzflK-105" value="rehabilitation" style="shape=partialRectangle;html=1;whiteSpace=wrap;connectable=0;strokeColor=inherit;overflow=hidden;fillColor=none;top=0;left=0;bottom=0;right=0;pointerEvents=1;fontFamily=Architects Daughter;fontSource=https%3A%2F%2Ffonts.googleapis.com%2Fcss%3Ffamily%3DArchitects%2BDaughter;" parent="4hFczNKrFziQG2gCzflK-104" vertex="1">
          <mxGeometry width="125" height="21" as="geometry">
            <mxRectangle width="125" height="21" as="alternateBounds" />
          </mxGeometry>
        </mxCell>
        <mxCell id="4hFczNKrFziQG2gCzflK-106" value="lognormal(30.0, 5.0)" style="shape=partialRectangle;html=1;whiteSpace=wrap;connectable=0;strokeColor=inherit;overflow=hidden;fillColor=none;top=0;left=0;bottom=0;right=0;pointerEvents=1;fontFamily=Architects Daughter;fontSource=https%3A%2F%2Ffonts.googleapis.com%2Fcss%3Ffamily%3DArchitects%2BDaughter;" parent="4hFczNKrFziQG2gCzflK-104" vertex="1">
          <mxGeometry x="125" width="125" height="21" as="geometry">
            <mxRectangle width="125" height="21" as="alternateBounds" />
          </mxGeometry>
        </mxCell>
        <mxCell id="Fs0Zx2mOZhYERamO-J62-21" value="" style="curved=1;endArrow=classic;html=1;rounded=0;dashed=1;fillColor=#60a917;strokeColor=default;exitX=0.962;exitY=0.005;exitDx=0;exitDy=0;exitPerimeter=0;" edge="1" parent="1" source="4hFczNKrFziQG2gCzflK-84" target="4hFczNKrFziQG2gCzflK-63">
          <mxGeometry width="50" height="50" relative="1" as="geometry">
            <mxPoint x="452" y="640" as="sourcePoint" />
            <mxPoint x="302" y="535" as="targetPoint" />
            <Array as="points">
              <mxPoint x="470" y="550" />
            </Array>
          </mxGeometry>
        </mxCell>
        <mxCell id="Fs0Zx2mOZhYERamO-J62-22" value="Release" style="edgeLabel;html=1;align=center;verticalAlign=middle;resizable=0;points=[];fontSize=16;fontFamily=Architects Daughter;fontSource=https%3A%2F%2Ffonts.googleapis.com%2Fcss%3Ffamily%3DArchitects%2BDaughter;" vertex="1" connectable="0" parent="Fs0Zx2mOZhYERamO-J62-21">
          <mxGeometry x="-0.2694" y="10" relative="1" as="geometry">
            <mxPoint x="-6" y="-7" as="offset" />
          </mxGeometry>
        </mxCell>
        <mxCell id="4hFczNKrFziQG2gCzflK-63" value="acute bed" style="ellipse;whiteSpace=wrap;html=1;fontFamily=Architects Daughter;fontSource=https%3A%2F%2Ffonts.googleapis.com%2Fcss%3Ffamily%3DArchitects%2BDaughter;sketch=1;curveFitting=1;jiggle=2;fillColor=default;strokeColor=default;" parent="1" vertex="1">
          <mxGeometry x="342" y="535" width="50" height="50" as="geometry" />
        </mxCell>
        <mxCell id="Fs0Zx2mOZhYERamO-J62-30" value="" style="edgeStyle=none;curved=1;rounded=0;sketch=1;hachureGap=4;jiggle=2;curveFitting=1;orthogonalLoop=1;jettySize=auto;html=1;fontFamily=Architects Daughter;fontSource=https%3A%2F%2Ffonts.googleapis.com%2Fcss%3Ffamily%3DArchitects%2BDaughter;fontSize=16;startSize=14;endArrow=open;endSize=14;sourcePerimeterSpacing=8;targetPerimeterSpacing=8;" edge="1" parent="1" source="Fs0Zx2mOZhYERamO-J62-28" target="4hFczNKrFziQG2gCzflK-88">
          <mxGeometry relative="1" as="geometry" />
        </mxCell>
        <mxCell id="Fs0Zx2mOZhYERamO-J62-28" value="rehabilitation" style="rounded=0;whiteSpace=wrap;html=1;fontFamily=Architects Daughter;fontSource=https%3A%2F%2Ffonts.googleapis.com%2Fcss%3Ffamily%3DArchitects%2BDaughter;sketch=1;curveFitting=1;jiggle=2;" vertex="1" parent="1">
          <mxGeometry x="590" y="645" width="80" height="40" as="geometry" />
        </mxCell>
      </root>
    </mxGraphModel>
  </diagram>
</mxfile>
